<?xml version="1.0" encoding="UTF-8" standalone="no"?>
<svg
   xmlns:dc="http://purl.org/dc/elements/1.1/"
   xmlns:cc="http://creativecommons.org/ns#"
   xmlns:rdf="http://www.w3.org/1999/02/22-rdf-syntax-ns#"
   xmlns:svg="http://www.w3.org/2000/svg"
   xmlns="http://www.w3.org/2000/svg"
   xmlns:sodipodi="http://sodipodi.sourceforge.net/DTD/sodipodi-0.dtd"
   xmlns:inkscape="http://www.inkscape.org/namespaces/inkscape"
   width="48"
   height="48"
   viewBox="0 0 48 48"
   version="1.1"
   id="svg4"
   sodipodi:docname="globe.svg"
   inkscape:version="0.92.2 5c3e80d, 2017-08-06">
  <metadata
     id="metadata10">
    <rdf:RDF>
      <cc:Work
         rdf:about="">
        <dc:format>image/svg+xml</dc:format>
        <dc:type
           rdf:resource="http://purl.org/dc/dcmitype/StillImage" />
        <dc:title></dc:title>
      </cc:Work>
    </rdf:RDF>
  </metadata>
  <defs
     id="defs8" />
  <sodipodi:namedview
     pagecolor="#ffffff"
     bordercolor="#666666"
     borderopacity="1"
     objecttolerance="10"
     gridtolerance="10"
     guidetolerance="10"
     inkscape:pageopacity="0"
     inkscape:pageshadow="2"
     inkscape:window-width="1920"
     inkscape:window-height="1155"
     id="namedview6"
     showgrid="false"
     inkscape:zoom="19.625"
     inkscape:cx="24"
     inkscape:cy="24"
     inkscape:window-x="0"
     inkscape:window-y="1"
     inkscape:window-maximized="1"
     inkscape:current-layer="svg4" />
  <path
     d="m 24.025478,4.0509552 c -11.021848,0 -19.9490449,8.9271978 -19.9490449,19.9490458 0,11.021847 8.9271969,19.949044 19.9490449,19.949044 11.021846,0 19.949045,-8.927197 19.949045,-19.949044 0,-11.021848 -8.927199,-19.9490458 -19.949045,-19.9490458 z m 0,4.9872615 c 1.645796,0 3.191847,0.4488533 4.688026,0.9475791 -1.047325,0.9974532 -2.244268,1.8951592 -2.044778,2.7928662 0.199491,0.897708 3.44121,0.648345 3.44121,2.493631 0,1.346561 -2.09465,1.745542 -0.648344,3.291593 1.745542,1.745541 -3.191847,4.887516 -3.291591,7.181656 -0.149619,4.139426 4.189299,4.837643 7.630508,4.837643 2.09465,0 2.643249,0.997452 2.493631,2.194395 -2.693121,3.840191 -7.281401,6.234077 -12.318535,6.234077 -1.895159,0 -3.6407,-0.448854 -5.286497,-1.097199 1.097197,-2.194394 -1.396432,-6.533311 -3.740445,-7.929744 -1.147071,-1.147071 -3.590828,-0.698216 -4.9872617,-1.246816 -0.4488535,-1.34656 -0.897707,-2.693121 -0.9475796,-4.189299 0.1496178,-0.249363 0.3989809,-0.448854 0.7979618,-0.448854 0.9475795,0 2.2442675,1.89516 2.9424835,1.695669 0.897707,-0.19949 -3.6905727,-6.533312 -1.54605,-7.780127 0.997452,-0.598472 2.992356,1.945031 2.344012,-0.797962 -0.598471,-2.543504 1.795414,-1.396433 3.291593,-2.044777 1.296688,-0.548599 2.244267,-2.044777 0.648344,-2.942484 -0.299236,-0.149618 -0.648344,-0.498727 -1.097198,-0.94758 2.244268,-1.3465606 4.837643,-2.194395 7.63051,-2.194395 z m 11.520573,5.4361143 c 0.897707,1.097198 1.595923,2.29414 2.194395,3.590828 0,0.04987 0,0.09975 0,0.149618 -0.199491,0.349109 -0.5486,0.548599 -1.097198,1.097197 -1.396433,1.396434 -1.595924,-1.047325 -2.194395,-1.54605 -0.648344,-0.598472 -2.992356,0.09975 -3.291592,-0.648344 -0.349108,-0.897707 2.493631,-2.09465 4.38879,-2.643249 z"
     id="path2"
     inkscape:connector-curvature="0"
     style="stroke-width:4.9872613" />
</svg>
